<svg width="80" height="80" viewBox="0 0 80 80" fill="none" xmlns="http://www.w3.org/2000/svg">
<g clip-path="url(#clip0_47_715)">
<mask id="mask0_47_715" style="mask-type:luminance" maskUnits="userSpaceOnUse" x="0" y="0" width="80" height="80">
<path d="M80 0H0V80H80V0Z" fill="white"/>
</mask>
<g mask="url(#mask0_47_715)">
<path d="M1.5 48C1.5 31.158 15.158 17.5 32 17.5C48.842 17.5 62.5 31.158 62.5 48C62.5 64.842 48.842 78.5 32 78.5H1.5V48Z" stroke="#686E71" stroke-width="3"/>
<path d="M41.5 20C41.5 9.779 49.779 1.5 60 1.5C70.221 1.5 78.5 9.779 78.5 20V38.5H60C49.779 38.5 41.5 30.221 41.5 20Z" fill="#BCFD4F" stroke="#BCFD4F" stroke-width="3"/>
</g>
<rect x="15" y="45" width="5" height="11" rx="2.5" fill="#BCFD4F"/>
<rect x="26" y="41" width="5" height="15" rx="2.5" fill="#BCFD4F"/>
<rect x="37" y="45" width="5" height="11" rx="2.5" fill="#BCFD4F"/>
</g>
<defs>
<clipPath id="clip0_47_715">
<rect width="80" height="80" fill="white"/>
</clipPath>
</defs>
</svg>
