<svg width="80" height="80" viewBox="0 0 80 80" fill="none" xmlns="http://www.w3.org/2000/svg">
<g clip-path="url(#clip0_47_287)">
<mask id="mask0_47_287" style="mask-type:luminance" maskUnits="userSpaceOnUse" x="0" y="0" width="80" height="80">
<path d="M80 0H0V80H80V0Z" fill="white"/>
</mask>
<g mask="url(#mask0_47_287)">
<path d="M66.5 9.071V46.929C66.5 51.112 63.078 54.5 58.853 54.5H9.147C4.922 54.5 1.5 51.112 1.5 46.929V9.071C1.5 4.888 4.922 1.5 9.147 1.5H58.853C63.078 1.5 66.5 4.888 66.5 9.071Z" stroke="#686E71" stroke-width="3"/>
<path d="M22 11V45C22 46.1 21.1 47 20 47H10C8.9 47 8 46.1 8 45V11C8 9.9 8.9 9 10 9H20C21.1 9 22 9.9 22 11Z" fill="#495053"/>
<path d="M52 61.5C52 62.33 51.33 63 50.5 63H17.5C16.67 63 16 62.33 16 61.5C16 60.67 16.67 60 17.5 60H50.5C51.33 60 52 60.67 52 61.5Z" fill="#686E71"/>
<path d="M78.5 14.184V41.816C78.5 43.852 76.822 45.5 74.75 45.5H37.25C35.178 45.5 33.5 43.852 33.5 41.816V14.184C33.5 12.148 35.178 10.5 37.25 10.5H74.75C76.822 10.5 78.5 12.148 78.5 14.184Z" fill="#BCFD4F" fill-opacity="0.01"/>
<path d="M78.5 14.184V41.816C78.5 43.852 76.822 45.5 74.75 45.5H37.25C35.178 45.5 33.5 43.852 33.5 41.816V14.184C33.5 12.148 35.178 10.5 37.25 10.5H74.75C76.822 10.5 78.5 12.148 78.5 14.184Z" stroke="#BCFD4F" stroke-width="3"/>
</g>
</g>
<defs>
<clipPath id="clip0_47_287">
<rect width="80" height="80" fill="white"/>
</clipPath>
</defs>
</svg>
