<svg width="80" height="80" viewBox="0 0 80 80" fill="none" xmlns="http://www.w3.org/2000/svg">
<g clip-path="url(#clip0_47_565)">
<mask id="mask0_47_565" style="mask-type:luminance" maskUnits="userSpaceOnUse" x="0" y="0" width="80" height="80">
<path d="M80 0H0V80H80V0Z" fill="white"/>
</mask>
<g mask="url(#mask0_47_565)">
<path fill-rule="evenodd" clip-rule="evenodd" d="M40.0501 2.38009C37.5501 0.910088 34.4401 0.910088 31.9401 2.38009L20.4801 9.12009L8.92005 15.6801C6.39005 17.1101 4.84005 19.8001 4.86005 22.7001L4.97005 36.0001L4.86005 49.2901C4.84005 52.1901 6.39005 54.8901 8.92005 56.3201L20.4801 62.8701L31.9401 69.6101C34.4401 71.0801 37.5501 71.0801 40.0501 69.6101L51.5201 62.8701L63.0801 56.3201C65.6101 54.8901 67.1601 52.1901 67.1401 49.2901L67.0301 36.0001L67.1401 22.7001C67.1601 19.8001 65.6101 17.1101 63.0801 15.6801L51.5201 9.12009L40.0501 2.38009ZM50.0201 11.7201L38.5301 4.97009C36.9701 4.05009 35.0201 4.05009 33.4601 4.97009L21.9801 11.7201L10.3901 18.2901C8.81005 19.1801 7.85005 20.8701 7.86005 22.6801L7.97005 36.0001L7.86005 49.3201C7.85005 51.1301 8.81005 52.8201 10.3901 53.7101L21.9801 60.2801L33.4601 67.0301C35.0201 67.9501 36.9701 67.9501 38.5301 67.0301L50.0201 60.2801L61.6001 53.7101C63.1801 52.8201 64.1501 51.1301 64.1401 49.3201L64.0301 36.0001L64.1401 22.6801C64.1501 20.8701 63.1801 19.1801 61.6001 18.2901L50.0201 11.7201Z" fill="#686E71"/>
<path d="M76.92 23.5L64.34 48.5H54.53L59.69 38.14H56.66C52.32 43.87 46.73 47.64 37.5 48.5V40.07C37.5 40.07 44.53 36.93 48 33.22H37.5V23.5H47.04V32.31H49L54.38 23.5H59.76L60.56 32.26L63 32.31L68.05 23.5H76.92Z" stroke="#BCFD4F" stroke-width="3"/>
</g>
</g>
<defs>
<clipPath id="clip0_47_565">
<rect width="80" height="80" fill="white"/>
</clipPath>
</defs>
</svg>
