<svg width="80" height="80" viewBox="0 0 80 80" fill="none" xmlns="http://www.w3.org/2000/svg">
<g clip-path="url(#clip0_47_575)">
<mask id="mask0_47_575" style="mask-type:luminance" maskUnits="userSpaceOnUse" x="0" y="0" width="80" height="80">
<path d="M80 0H0V80H80V0Z" fill="white"/>
</mask>
<g mask="url(#mask0_47_575)">
<path fill-rule="evenodd" clip-rule="evenodd" d="M15.0944 9.36194C12.2872 10.0903 10.0881 12.2894 9.35981 15.0966L6.02227 27.9659L2.48673 40.7787C1.70892 43.5788 2.51502 46.577 4.57977 48.6134L14.0621 57.9402L23.3817 67.4154C25.4182 69.4802 28.4234 70.2933 31.2236 69.5155L44.0293 65.9729L56.8986 62.6354C59.7058 61.907 61.9049 59.7079 62.6332 56.9007L65.9779 44.0243L69.5205 31.2186C70.2983 28.4185 69.4851 25.4133 67.4203 23.3768L57.9451 14.0571L48.6184 4.57483C46.5819 2.51008 43.5838 1.70397 40.7836 2.48179L27.9709 6.01732L15.0944 9.36194ZM28.7487 8.91646L15.8511 12.2681C14.0974 12.7207 12.7186 14.0996 12.266 15.8532L8.92141 28.7437L5.37173 41.5848C4.88383 43.3313 5.40001 45.2052 6.68695 46.478L16.1834 55.8189L25.5243 65.3153C26.7971 66.6022 28.6709 67.1184 30.4175 66.6305L43.2585 63.0808L56.1491 59.7362C57.9027 59.2837 59.2816 57.9048 59.7341 56.1512L63.0858 43.2536L66.6284 30.4196C67.1163 28.673 66.6072 26.7921 65.3202 25.5193L55.8238 16.1784L46.4829 6.68201C45.2101 5.39507 43.3292 4.88595 41.5827 5.37386L28.7487 8.91646Z" fill="#686E71"/>
<path d="M56.42 23.5L43.84 48.5H34.03L39.19 38.14H36.16C31.82 43.87 26.23 47.64 17 48.5V40.07C17 40.07 24.03 36.93 27.5 33.22H17V23.5H26.54V32.31H28.5L33.88 23.5H39.26L40.06 32.26L42.5 32.31L47.55 23.5H56.42Z" fill="#BCFD4F" stroke="#BCFD4F" stroke-width="3"/>
</g>
</g>
<defs>
<clipPath id="clip0_47_575">
<rect width="80" height="80" fill="white"/>
</clipPath>
</defs>
</svg>
