<svg width="80" height="80" viewBox="0 0 80 80" fill="none" xmlns="http://www.w3.org/2000/svg">
<g clip-path="url(#clip0_47_418)">
<mask id="mask0_47_418" style="mask-type:luminance" maskUnits="userSpaceOnUse" x="0" y="0" width="80" height="80">
<path d="M80 0H0V80H80V0Z" fill="white"/>
</mask>
<g mask="url(#mask0_47_418)">
<path d="M72.5 9.056V44.944C72.5 49.118 69.078 52.5 64.853 52.5H15.147C10.922 52.5 7.5 49.118 7.5 44.944V9.056C7.5 4.882 10.922 1.5 15.147 1.5H64.853C69.078 1.5 72.5 4.882 72.5 9.056Z" stroke="#686E71" stroke-width="3"/>
<path d="M39.4401 61.18C40.0301 60.59 40.9701 60.59 41.5601 61.18L43.6801 59.06C41.9201 57.3 39.0801 57.3 37.3201 59.06L39.4401 61.18ZM41.5601 61.18L56.9401 76.56L59.0601 74.44L43.6801 59.06L41.5601 61.18ZM24.0601 76.56L39.4401 61.18L37.3201 59.06L21.9401 74.44L24.0601 76.56ZM56.9401 76.56C57.5301 77.15 58.4701 77.15 59.0601 76.56C59.6501 75.97 59.6501 75.03 59.0601 74.44L56.9401 76.56ZM21.9401 74.44C21.3501 75.03 21.3501 75.97 21.9401 76.56C22.5301 77.15 23.4701 77.15 24.0601 76.56L21.9401 74.44Z" fill="#686E71"/>
<path d="M67 43C67 43.55 66.55 44 66 44H14C13.45 44 13 43.55 13 43C13 42.45 13.45 42 14 42H66C66.55 42 67 42.45 67 43Z" fill="#495053"/>
<path d="M28 15.857V38.143C28 39.164 27.325 40 26.5 40H23.5C22.675 40 22 39.164 22 38.143V15.857C22 14.836 22.675 14 23.5 14H26.5C27.325 14 28 14.836 28 15.857Z" fill="#BCFD4F" fill-opacity="0.01"/>
<path d="M28 15.857V38.143C28 39.164 27.325 40 26.5 40H23.5C22.675 40 22 39.164 22 38.143V15.857C22 14.836 22.675 14 23.5 14H26.5C27.325 14 28 14.836 28 15.857Z" stroke="#BCFD4F" stroke-width="2"/>
<path d="M42 32.636V38.364C42 39.264 41.325 40 40.5 40H37.5C36.675 40 36 39.264 36 38.364V32.636C36 31.736 36.675 31 37.5 31H40.5C41.325 31 42 31.736 42 32.636Z" fill="#BCFD4F" fill-opacity="0.01"/>
<path d="M42 32.636V38.364C42 39.264 41.325 40 40.5 40H37.5C36.675 40 36 39.264 36 38.364V32.636C36 31.736 36.675 31 37.5 31H40.5C41.325 31 42 31.736 42 32.636Z" stroke="#BCFD4F" stroke-width="2"/>
<path d="M56 24.789V38.211C56 39.195 55.325 40 54.5 40H51.5C50.675 40 50 39.195 50 38.211V24.789C50 23.805 50.675 23 51.5 23H54.5C55.325 23 56 23.805 56 24.789Z" fill="#BCFD4F" fill-opacity="0.01"/>
<path d="M56 24.789V38.211C56 39.195 55.325 40 54.5 40H51.5C50.675 40 50 39.195 50 38.211V24.789C50 23.805 50.675 23 51.5 23H54.5C55.325 23 56 23.805 56 24.789Z" stroke="#BCFD4F" stroke-width="2"/>
</g>
</g>
<defs>
<clipPath id="clip0_47_418">
<rect width="80" height="80" fill="white"/>
</clipPath>
</defs>
</svg>
